<mxfile host="app.diagrams.net" modified="2023-06-19T00:31:06.422Z" agent="Mozilla/5.0 (Windows NT 10.0; Win64; x64) AppleWebKit/537.36 (KHTML, like Gecko) Chrome/114.0.0.0 Safari/537.36" etag="T1T-e71NgklxQ2iYF1RH" version="21.4.0" type="device">
  <diagram name="페이지-1" id="Xt2uu6nJdrluI8gXR9bE">
    <mxGraphModel dx="4780" dy="5820" grid="1" gridSize="10" guides="1" tooltips="1" connect="1" arrows="1" fold="1" page="1" pageScale="1" pageWidth="4681" pageHeight="3300" math="0" shadow="0">
      <root>
        <mxCell id="0" />
        <mxCell id="1" parent="0" />
        <mxCell id="kY6BftyaQsEhFVCnsbbo-7" style="rounded=0;orthogonalLoop=1;jettySize=auto;html=1;entryX=0.571;entryY=0.008;entryDx=0;entryDy=0;entryPerimeter=0;exitX=0.5;exitY=1;exitDx=0;exitDy=0;" parent="1" source="kY6BftyaQsEhFVCnsbbo-1" target="kY6BftyaQsEhFVCnsbbo-2" edge="1">
          <mxGeometry relative="1" as="geometry" />
        </mxCell>
        <mxCell id="kY6BftyaQsEhFVCnsbbo-8" style="edgeStyle=none;shape=connector;rounded=0;orthogonalLoop=1;jettySize=auto;html=1;labelBackgroundColor=default;strokeColor=default;fontFamily=Helvetica;fontSize=11;fontColor=default;endArrow=classic;exitX=0.5;exitY=1;exitDx=0;exitDy=0;" parent="1" source="kY6BftyaQsEhFVCnsbbo-1" target="kY6BftyaQsEhFVCnsbbo-3" edge="1">
          <mxGeometry relative="1" as="geometry" />
        </mxCell>
        <mxCell id="kY6BftyaQsEhFVCnsbbo-9" style="edgeStyle=none;shape=connector;rounded=0;orthogonalLoop=1;jettySize=auto;html=1;labelBackgroundColor=default;strokeColor=default;fontFamily=Helvetica;fontSize=11;fontColor=default;endArrow=classic;exitX=0.5;exitY=1;exitDx=0;exitDy=0;" parent="1" source="kY6BftyaQsEhFVCnsbbo-1" target="kY6BftyaQsEhFVCnsbbo-4" edge="1">
          <mxGeometry relative="1" as="geometry" />
        </mxCell>
        <mxCell id="kY6BftyaQsEhFVCnsbbo-10" style="edgeStyle=none;shape=connector;rounded=0;orthogonalLoop=1;jettySize=auto;html=1;labelBackgroundColor=default;strokeColor=default;fontFamily=Helvetica;fontSize=11;fontColor=default;endArrow=classic;exitX=0.5;exitY=1;exitDx=0;exitDy=0;" parent="1" source="kY6BftyaQsEhFVCnsbbo-1" target="kY6BftyaQsEhFVCnsbbo-5" edge="1">
          <mxGeometry relative="1" as="geometry" />
        </mxCell>
        <mxCell id="kY6BftyaQsEhFVCnsbbo-11" style="edgeStyle=none;shape=connector;rounded=0;orthogonalLoop=1;jettySize=auto;html=1;labelBackgroundColor=default;strokeColor=default;fontFamily=Helvetica;fontSize=11;fontColor=default;endArrow=classic;exitX=0.5;exitY=1;exitDx=0;exitDy=0;entryX=0.328;entryY=0.028;entryDx=0;entryDy=0;entryPerimeter=0;" parent="1" source="kY6BftyaQsEhFVCnsbbo-1" target="kY6BftyaQsEhFVCnsbbo-6" edge="1">
          <mxGeometry relative="1" as="geometry">
            <mxPoint x="1879.4704177638841" y="2074.8977669047035" as="targetPoint" />
          </mxGeometry>
        </mxCell>
        <mxCell id="kY6BftyaQsEhFVCnsbbo-1" value="&lt;font style=&quot;font-size: 56px;&quot;&gt;상품정보&lt;/font&gt;" style="whiteSpace=wrap;html=1;align=center;fillColor=#d5e8d4;strokeColor=#82b366;" parent="1" vertex="1">
          <mxGeometry x="980" y="1370" width="350" height="240" as="geometry" />
        </mxCell>
        <mxCell id="kY6BftyaQsEhFVCnsbbo-2" value="&lt;font style=&quot;font-size: 42px;&quot;&gt;상품코드&lt;/font&gt;" style="ellipse;whiteSpace=wrap;html=1;align=center;fontStyle=4;fillColor=#dae8fc;strokeColor=#6c8ebf;" parent="1" vertex="1">
          <mxGeometry x="170" y="2020" width="350" height="310" as="geometry" />
        </mxCell>
        <mxCell id="kY6BftyaQsEhFVCnsbbo-3" value="&lt;font style=&quot;font-size: 31px;&quot;&gt;상품명&lt;/font&gt;" style="ellipse;whiteSpace=wrap;html=1;align=center;fillColor=#f5f5f5;fontColor=#333333;strokeColor=#666666;" parent="1" vertex="1">
          <mxGeometry x="610" y="2030" width="360" height="290" as="geometry" />
        </mxCell>
        <mxCell id="kY6BftyaQsEhFVCnsbbo-4" value="&lt;font style=&quot;font-size: 31px;&quot;&gt;상품명&lt;/font&gt;" style="ellipse;whiteSpace=wrap;html=1;align=center;fillColor=#f5f5f5;fontColor=#333333;strokeColor=#666666;" parent="1" vertex="1">
          <mxGeometry x="1000" y="2030" width="360" height="290" as="geometry" />
        </mxCell>
        <mxCell id="kY6BftyaQsEhFVCnsbbo-5" value="&lt;font style=&quot;font-size: 31px;&quot;&gt;매입단가&lt;/font&gt;" style="ellipse;whiteSpace=wrap;html=1;align=center;fillColor=#f5f5f5;fontColor=#333333;strokeColor=#666666;" parent="1" vertex="1">
          <mxGeometry x="1420" y="2030" width="360" height="290" as="geometry" />
        </mxCell>
        <mxCell id="kY6BftyaQsEhFVCnsbbo-6" value="&lt;font style=&quot;font-size: 31px;&quot;&gt;매출단가&lt;/font&gt;" style="ellipse;whiteSpace=wrap;html=1;align=center;fillColor=#f5f5f5;fontColor=#333333;strokeColor=#666666;" parent="1" vertex="1">
          <mxGeometry x="1840" y="2030" width="360" height="290" as="geometry" />
        </mxCell>
        <mxCell id="kY6BftyaQsEhFVCnsbbo-12" style="rounded=0;orthogonalLoop=1;jettySize=auto;html=1;entryX=0.571;entryY=0.008;entryDx=0;entryDy=0;entryPerimeter=0;exitX=0.5;exitY=1;exitDx=0;exitDy=0;" parent="1" source="kY6BftyaQsEhFVCnsbbo-17" target="kY6BftyaQsEhFVCnsbbo-18" edge="1">
          <mxGeometry relative="1" as="geometry" />
        </mxCell>
        <mxCell id="kY6BftyaQsEhFVCnsbbo-13" style="edgeStyle=none;shape=connector;rounded=0;orthogonalLoop=1;jettySize=auto;html=1;labelBackgroundColor=default;strokeColor=default;fontFamily=Helvetica;fontSize=11;fontColor=default;endArrow=classic;exitX=0.5;exitY=1;exitDx=0;exitDy=0;" parent="1" source="kY6BftyaQsEhFVCnsbbo-17" target="kY6BftyaQsEhFVCnsbbo-19" edge="1">
          <mxGeometry relative="1" as="geometry" />
        </mxCell>
        <mxCell id="kY6BftyaQsEhFVCnsbbo-14" style="edgeStyle=none;shape=connector;rounded=0;orthogonalLoop=1;jettySize=auto;html=1;labelBackgroundColor=default;strokeColor=default;fontFamily=Helvetica;fontSize=11;fontColor=default;endArrow=classic;exitX=0.5;exitY=1;exitDx=0;exitDy=0;" parent="1" source="kY6BftyaQsEhFVCnsbbo-17" target="kY6BftyaQsEhFVCnsbbo-20" edge="1">
          <mxGeometry relative="1" as="geometry" />
        </mxCell>
        <mxCell id="kY6BftyaQsEhFVCnsbbo-15" style="edgeStyle=none;shape=connector;rounded=0;orthogonalLoop=1;jettySize=auto;html=1;labelBackgroundColor=default;strokeColor=default;fontFamily=Helvetica;fontSize=11;fontColor=default;endArrow=classic;exitX=0.5;exitY=1;exitDx=0;exitDy=0;" parent="1" source="kY6BftyaQsEhFVCnsbbo-17" target="kY6BftyaQsEhFVCnsbbo-21" edge="1">
          <mxGeometry relative="1" as="geometry" />
        </mxCell>
        <mxCell id="kY6BftyaQsEhFVCnsbbo-17" value="&lt;font style=&quot;font-size: 56px;&quot;&gt;고객정보&lt;/font&gt;" style="whiteSpace=wrap;html=1;align=center;fillColor=#d5e8d4;strokeColor=#82b366;" parent="1" vertex="1">
          <mxGeometry x="3580" y="1360" width="350" height="240" as="geometry" />
        </mxCell>
        <mxCell id="kY6BftyaQsEhFVCnsbbo-18" value="&lt;font style=&quot;font-size: 42px;&quot;&gt;고객ID&lt;/font&gt;" style="ellipse;whiteSpace=wrap;html=1;align=center;fontStyle=4;fillColor=#dae8fc;strokeColor=#6c8ebf;" parent="1" vertex="1">
          <mxGeometry x="3000" y="2020" width="350" height="310" as="geometry" />
        </mxCell>
        <mxCell id="kY6BftyaQsEhFVCnsbbo-19" value="&lt;span style=&quot;font-size: 31px;&quot;&gt;고객이름&lt;/span&gt;" style="ellipse;whiteSpace=wrap;html=1;align=center;fillColor=#f5f5f5;fontColor=#333333;strokeColor=#666666;" parent="1" vertex="1">
          <mxGeometry x="3440" y="2030" width="360" height="290" as="geometry" />
        </mxCell>
        <mxCell id="kY6BftyaQsEhFVCnsbbo-20" value="&lt;font style=&quot;font-size: 31px;&quot;&gt;전화번호&lt;/font&gt;" style="ellipse;whiteSpace=wrap;html=1;align=center;fillColor=#f5f5f5;fontColor=#333333;strokeColor=#666666;" parent="1" vertex="1">
          <mxGeometry x="3830" y="2030" width="360" height="290" as="geometry" />
        </mxCell>
        <mxCell id="kY6BftyaQsEhFVCnsbbo-21" value="&lt;font style=&quot;font-size: 31px;&quot;&gt;주소&lt;/font&gt;" style="ellipse;whiteSpace=wrap;html=1;align=center;fillColor=#f5f5f5;fontColor=#333333;strokeColor=#666666;" parent="1" vertex="1">
          <mxGeometry x="4250" y="2030" width="360" height="290" as="geometry" />
        </mxCell>
        <mxCell id="kY6BftyaQsEhFVCnsbbo-34" style="edgeStyle=none;shape=connector;rounded=0;orthogonalLoop=1;jettySize=auto;html=1;labelBackgroundColor=default;strokeColor=default;fontFamily=Helvetica;fontSize=11;fontColor=default;endArrow=classic;exitX=0.5;exitY=0;exitDx=0;exitDy=0;" parent="1" source="kY6BftyaQsEhFVCnsbbo-23" target="kY6BftyaQsEhFVCnsbbo-33" edge="1">
          <mxGeometry relative="1" as="geometry" />
        </mxCell>
        <mxCell id="kY6BftyaQsEhFVCnsbbo-35" style="edgeStyle=none;shape=connector;rounded=0;orthogonalLoop=1;jettySize=auto;html=1;labelBackgroundColor=default;strokeColor=default;fontFamily=Helvetica;fontSize=11;fontColor=default;endArrow=classic;exitX=0.5;exitY=0;exitDx=0;exitDy=0;" parent="1" source="kY6BftyaQsEhFVCnsbbo-23" target="kY6BftyaQsEhFVCnsbbo-28" edge="1">
          <mxGeometry relative="1" as="geometry" />
        </mxCell>
        <mxCell id="kY6BftyaQsEhFVCnsbbo-36" style="edgeStyle=none;shape=connector;rounded=0;orthogonalLoop=1;jettySize=auto;html=1;entryX=0.5;entryY=1;entryDx=0;entryDy=0;labelBackgroundColor=default;strokeColor=default;fontFamily=Helvetica;fontSize=11;fontColor=default;endArrow=classic;exitX=0.5;exitY=0;exitDx=0;exitDy=0;" parent="1" source="kY6BftyaQsEhFVCnsbbo-23" target="kY6BftyaQsEhFVCnsbbo-29" edge="1">
          <mxGeometry relative="1" as="geometry" />
        </mxCell>
        <mxCell id="kY6BftyaQsEhFVCnsbbo-37" style="edgeStyle=none;shape=connector;rounded=0;orthogonalLoop=1;jettySize=auto;html=1;entryX=0.5;entryY=1;entryDx=0;entryDy=0;labelBackgroundColor=default;strokeColor=default;fontFamily=Helvetica;fontSize=11;fontColor=default;endArrow=classic;exitX=0.5;exitY=0;exitDx=0;exitDy=0;" parent="1" source="kY6BftyaQsEhFVCnsbbo-23" target="kY6BftyaQsEhFVCnsbbo-30" edge="1">
          <mxGeometry relative="1" as="geometry" />
        </mxCell>
        <mxCell id="kY6BftyaQsEhFVCnsbbo-38" style="edgeStyle=none;shape=connector;rounded=0;orthogonalLoop=1;jettySize=auto;html=1;entryX=0.5;entryY=1;entryDx=0;entryDy=0;labelBackgroundColor=default;strokeColor=default;fontFamily=Helvetica;fontSize=11;fontColor=default;endArrow=classic;exitX=0.5;exitY=0;exitDx=0;exitDy=0;" parent="1" source="kY6BftyaQsEhFVCnsbbo-23" target="kY6BftyaQsEhFVCnsbbo-31" edge="1">
          <mxGeometry relative="1" as="geometry" />
        </mxCell>
        <mxCell id="kY6BftyaQsEhFVCnsbbo-39" style="edgeStyle=none;shape=connector;rounded=0;orthogonalLoop=1;jettySize=auto;html=1;entryX=0.5;entryY=1;entryDx=0;entryDy=0;labelBackgroundColor=default;strokeColor=default;fontFamily=Helvetica;fontSize=11;fontColor=default;endArrow=classic;exitX=0.5;exitY=0;exitDx=0;exitDy=0;" parent="1" source="kY6BftyaQsEhFVCnsbbo-23" target="kY6BftyaQsEhFVCnsbbo-32" edge="1">
          <mxGeometry relative="1" as="geometry" />
        </mxCell>
        <mxCell id="kY6BftyaQsEhFVCnsbbo-23" value="&lt;font style=&quot;font-size: 48px;&quot;&gt;판매내역&lt;/font&gt;" style="shape=rhombus;perimeter=rhombusPerimeter;whiteSpace=wrap;html=1;align=center;fontFamily=Helvetica;fontSize=11;fontColor=default;" parent="1" vertex="1">
          <mxGeometry x="2000" y="820" width="530" height="230" as="geometry" />
        </mxCell>
        <mxCell id="kY6BftyaQsEhFVCnsbbo-28" value="&lt;font style=&quot;font-size: 31px;&quot;&gt;거래일자&lt;/font&gt;" style="ellipse;whiteSpace=wrap;html=1;align=center;fillColor=#f5f5f5;fontColor=#333333;strokeColor=#666666;" parent="1" vertex="1">
          <mxGeometry x="1370" y="-10" width="360" height="290" as="geometry" />
        </mxCell>
        <mxCell id="kY6BftyaQsEhFVCnsbbo-29" value="&lt;font style=&quot;font-size: 31px;&quot;&gt;거래시각&lt;/font&gt;" style="ellipse;whiteSpace=wrap;html=1;align=center;fillColor=#f5f5f5;fontColor=#333333;strokeColor=#666666;" parent="1" vertex="1">
          <mxGeometry x="1780" y="-15" width="360" height="290" as="geometry" />
        </mxCell>
        <mxCell id="kY6BftyaQsEhFVCnsbbo-30" value="&lt;font style=&quot;font-size: 31px;&quot;&gt;수량&lt;/font&gt;" style="ellipse;whiteSpace=wrap;html=1;align=center;fillColor=#f5f5f5;fontColor=#333333;strokeColor=#666666;" parent="1" vertex="1">
          <mxGeometry x="2170" y="-10" width="360" height="290" as="geometry" />
        </mxCell>
        <mxCell id="kY6BftyaQsEhFVCnsbbo-31" value="&lt;font style=&quot;font-size: 31px;&quot;&gt;판매단가&lt;br&gt;&lt;/font&gt;" style="ellipse;whiteSpace=wrap;html=1;align=center;fillColor=#f5f5f5;fontColor=#333333;strokeColor=#666666;" parent="1" vertex="1">
          <mxGeometry x="2590" y="-10" width="360" height="290" as="geometry" />
        </mxCell>
        <mxCell id="kY6BftyaQsEhFVCnsbbo-32" value="&lt;font style=&quot;font-size: 31px;&quot;&gt;판매금액&lt;br&gt;&lt;/font&gt;" style="ellipse;whiteSpace=wrap;html=1;align=center;fillColor=#f5f5f5;fontColor=#333333;strokeColor=#666666;" parent="1" vertex="1">
          <mxGeometry x="2980" y="-15" width="360" height="290" as="geometry" />
        </mxCell>
        <mxCell id="kY6BftyaQsEhFVCnsbbo-33" value="&lt;span style=&quot;font-size: 42px;&quot;&gt;SEQ&lt;/span&gt;" style="ellipse;whiteSpace=wrap;html=1;align=center;fontStyle=4;fillColor=#dae8fc;strokeColor=#6c8ebf;" parent="1" vertex="1">
          <mxGeometry x="930" y="-20" width="350" height="310" as="geometry" />
        </mxCell>
        <mxCell id="XJkGyNE9HqVNe5j1IA3o-1" value="" style="endArrow=none;html=1;rounded=0;exitX=0.5;exitY=0;exitDx=0;exitDy=0;entryX=0.5;entryY=1;entryDx=0;entryDy=0;" edge="1" parent="1" source="kY6BftyaQsEhFVCnsbbo-1" target="kY6BftyaQsEhFVCnsbbo-23">
          <mxGeometry relative="1" as="geometry">
            <mxPoint x="2240" y="1150" as="sourcePoint" />
            <mxPoint x="2400" y="1150" as="targetPoint" />
          </mxGeometry>
        </mxCell>
        <mxCell id="XJkGyNE9HqVNe5j1IA3o-2" value="N" style="resizable=0;html=1;whiteSpace=wrap;align=right;verticalAlign=bottom;" connectable="0" vertex="1" parent="XJkGyNE9HqVNe5j1IA3o-1">
          <mxGeometry x="1" relative="1" as="geometry" />
        </mxCell>
        <mxCell id="XJkGyNE9HqVNe5j1IA3o-3" value="" style="endArrow=none;html=1;rounded=0;exitX=0.5;exitY=0;exitDx=0;exitDy=0;entryX=0.5;entryY=1;entryDx=0;entryDy=0;" edge="1" parent="1" source="kY6BftyaQsEhFVCnsbbo-17" target="kY6BftyaQsEhFVCnsbbo-23">
          <mxGeometry relative="1" as="geometry">
            <mxPoint x="1165" y="1380" as="sourcePoint" />
            <mxPoint x="2275" y="1060" as="targetPoint" />
          </mxGeometry>
        </mxCell>
        <mxCell id="XJkGyNE9HqVNe5j1IA3o-4" value="N" style="resizable=0;html=1;whiteSpace=wrap;align=right;verticalAlign=bottom;" connectable="0" vertex="1" parent="XJkGyNE9HqVNe5j1IA3o-3">
          <mxGeometry x="1" relative="1" as="geometry" />
        </mxCell>
      </root>
    </mxGraphModel>
  </diagram>
</mxfile>
